<?xml version="1.0" encoding="UTF-8"?>
<svg version="1.1" xmlns="http://www.w3.org/2000/svg" width="129" height="123">
<path d="M0 0 C42.57 0 85.14 0 129 0 C129 40.59 129 81.18 129 123 C86.43 123 43.86 123 0 123 C0 82.41 0 41.82 0 0 Z " fill="#FDFDFE" transform="translate(0,0)"/>
<path d="M0 0 C2.75717382 2.45751459 4.32369527 5.12260882 6.08203125 8.35546875 C6.67717529 9.44061768 7.27231934 10.5257666 7.88549805 11.64379883 C8.19917328 12.22078522 8.51284851 12.79777161 8.83602905 13.39224243 C10.50644421 16.46332761 12.19414567 19.52485981 13.8828125 22.5859375 C14.22702744 23.21033218 14.57124237 23.83472687 14.92588806 24.4780426 C18.24632499 30.4818981 21.70327791 36.40236812 25.1875 42.3125 C30.15386285 50.75288746 34.93098085 59.27383685 39.5847168 67.89013672 C44.06289984 76.16691955 48.71533075 84.33843125 53.40625 92.49609375 C53.84582031 93.26163574 54.28539063 94.02717773 54.73828125 94.81591797 C55.56160422 96.24112062 56.39202988 97.66225048 57.23046875 99.07861328 C60 103.79046053 60 103.79046053 60 106 C52.41 106 44.82 106 37 106 C36.01902344 104.28039062 35.03804688 102.56078125 34.02734375 100.7890625 C32.66423531 98.4009428 31.30099567 96.01289858 29.9375 93.625 C29.581185 93.00096283 29.22487 92.37692566 28.85775757 91.73397827 C22.92374931 81.34386382 16.95819766 70.97240492 10.96264648 60.61767578 C7.58421925 54.77601756 4.25167383 48.91323252 1 43 C-1.46768663 46.12464691 -3.4214397 49.38167139 -5.35546875 52.859375 C-5.97744141 53.97441406 -6.59941406 55.08945313 -7.24023438 56.23828125 C-7.88938646 57.40881893 -8.5384742 58.57939229 -9.1875 59.75 C-9.84803922 60.93634722 -10.5088438 62.12254672 -11.16992188 63.30859375 C-12.78255842 66.20427689 -14.39162381 69.10194832 -16 72 C-23.92 72 -31.84 72 -40 72 C-38.4390393 68.09759825 -36.81278797 64.67103904 -34.796875 61.01171875 C-34.32528961 60.15421524 -34.32528961 60.15421524 -33.84417725 59.27938843 C-32.81621146 57.41351018 -31.78344557 55.55034808 -30.75 53.6875 C-30.39607178 53.04738983 -30.04214355 52.40727966 -29.67749023 51.74777222 C-23.12922487 39.90895167 -16.35800934 28.21060289 -9.49511719 16.55126953 C-6.27910359 11.06346058 -3.13685891 5.53334118 0 0 Z " fill="#31312F" transform="translate(64,9)"/>
<path d="M0 0 C0.66 0 1.32 0 2 0 C2.40839111 0.73114014 2.81678223 1.46228027 3.23754883 2.21557617 C4.76329278 4.94623108 6.28973854 7.67649214 7.81665039 10.40649414 C8.79822596 12.16197189 9.77900173 13.91789677 10.75976562 15.67382812 C11.38173828 16.78564453 12.00371094 17.89746094 12.64453125 19.04296875 C13.50075073 20.57473755 13.50075073 20.57473755 14.37426758 22.13745117 C15.44863483 24.02917005 16.56025405 25.90026257 17.7097168 27.74731445 C19 30 19 30 19 32 C-7.07 32 -33.14 32 -60 32 C-52 17 -52 17 -49 13 C-47.09185791 12.56176758 -47.09185791 12.56176758 -44.91503906 12.64453125 C-44.09698792 12.66354492 -43.27893677 12.68255859 -42.43609619 12.70214844 C-41.11421295 12.75677246 -41.11421295 12.75677246 -39.765625 12.8125 C-37.89325857 12.83699647 -36.02085894 12.85905457 -34.1484375 12.87890625 C-31.19955565 12.93042582 -28.25482004 12.99981523 -25.30761719 13.11279297 C-16.04587078 13.59855639 -16.04587078 13.59855639 -7 12 C-3.28800679 8.39347575 -1.80307958 4.76746466 0 0 Z " fill="#1989CC" transform="translate(65,83)"/>
<path d="M0 0 C4 4.75 4 4.75 4 7 C-22.07 7 -48.14 7 -75 7 C-74.01 5.68 -73.02 4.36 -72 3 C-72 3.66 -72 4.32 -72 5 C-48.24 5 -24.48 5 0 5 C0 3.35 0 1.7 0 0 Z " fill="#2F83B5" transform="translate(80,108)"/>
<path d="M0 0 C0.66 0 1.32 0 2 0 C5.22265625 5.2734375 5.22265625 5.2734375 6 7 C5.67 7.66 5.34 8.32 5 9 C3.68 7.35 2.36 5.7 1 4 C-1.24139616 6.88179506 -3.13534459 9.86398863 -5 13 C-6 14 -6 14 -7.75270081 14.12025452 C-8.51437057 14.11803391 -9.27604034 14.11581329 -10.06079102 14.11352539 C-10.92160782 14.11344986 -11.78242462 14.11337433 -12.66932678 14.11329651 C-13.60473801 14.10813522 -14.54014923 14.10297394 -15.50390625 14.09765625 C-16.45692123 14.0962413 -17.40993622 14.09482635 -18.39183044 14.09336853 C-21.44875165 14.08775152 -24.50560077 14.07519616 -27.5625 14.0625 C-29.62955624 14.05748719 -31.69661362 14.05292391 -33.76367188 14.04882812 C-38.84247588 14.03777656 -43.9212257 14.02050055 -49 14 C-49 13.67 -49 13.34 -49 13 C-47.76435303 13.03254883 -46.52870605 13.06509766 -45.25561523 13.09863281 C-40.65006415 13.2039479 -36.04684495 13.229663 -31.44018555 13.23193359 C-29.45068121 13.24390394 -27.46118243 13.27717129 -25.47241211 13.33251953 C-16.11695171 13.72195729 -16.11695171 13.72195729 -7 12 C-3.28794234 8.38716099 -1.79941407 4.77375295 0 0 Z " fill="#2B83B8" transform="translate(65,83)"/>
<path d="M0 0 C0.66 0 1.32 0 2 0 C5.22265625 5.2734375 5.22265625 5.2734375 6 7 C5.67 7.66 5.34 8.32 5 9 C3.68 7.35 2.36 5.7 1 4 C-0.68854343 6.17098441 -2.17773907 8.3057112 -3.5625 10.6875 C-5 13 -5 13 -7 14 C-5.23570801 9.02790438 -2.6060834 4.56561939 0 0 Z " fill="#398CBF" transform="translate(65,83)"/>
</svg>
